<svg width="26" height="26" viewBox="0 0 26 26" fill="none" xmlns="http://www.w3.org/2000/svg">
<path d="M23.5875 0.499999H2.4125C2.17447 0.496694 1.93812 0.540309 1.71695 0.628354C1.49578 0.716399 1.29413 0.84715 1.12349 1.01314C0.952862 1.17913 0.816599 1.3771 0.722487 1.59576C0.628375 1.81442 0.578257 2.04947 0.574997 2.2875V23.7125C0.578257 23.9505 0.628375 24.1856 0.722487 24.4042C0.816599 24.6229 0.952862 24.8209 1.12349 24.9869C1.29413 25.1528 1.49578 25.2836 1.71695 25.3716C1.93812 25.4597 2.17447 25.5033 2.4125 25.5H23.5875C23.8255 25.5033 24.0619 25.4597 24.283 25.3716C24.5042 25.2836 24.7059 25.1528 24.8765 24.9869C25.0471 24.8209 25.1834 24.6229 25.2775 24.4042C25.3716 24.1856 25.4217 23.9505 25.425 23.7125V2.2875C25.4217 2.04947 25.3716 1.81442 25.2775 1.59576C25.1834 1.3771 25.0471 1.17913 24.8765 1.01314C24.7059 0.84715 24.5042 0.716399 24.283 0.628354C24.0619 0.540309 23.8255 0.496694 23.5875 0.499999ZM8.1125 21.425H4.3625V10.175H8.1125V21.425ZM6.2375 8.6C5.72032 8.6 5.22433 8.39455 4.85864 8.02886C4.49294 7.66316 4.2875 7.16717 4.2875 6.65C4.2875 6.13283 4.49294 5.63684 4.85864 5.27114C5.22433 4.90545 5.72032 4.7 6.2375 4.7C6.51212 4.66886 6.79022 4.69607 7.05359 4.77985C7.31696 4.86364 7.55967 5.00211 7.76582 5.1862C7.97197 5.37029 8.1369 5.59585 8.24984 5.8481C8.36277 6.10036 8.42114 6.37362 8.42114 6.65C8.42114 6.92638 8.36277 7.19964 8.24984 7.4519C8.1369 7.70415 7.97197 7.92971 7.76582 8.1138C7.55967 8.29789 7.31696 8.43636 7.05359 8.52015C6.79022 8.60393 6.51212 8.63114 6.2375 8.6ZM21.6375 21.425H17.8875V15.3875C17.8875 13.875 17.35 12.8875 15.9875 12.8875C15.5658 12.8906 15.1552 13.0228 14.811 13.2665C14.4669 13.5101 14.2056 13.8533 14.0625 14.25C13.9647 14.5438 13.9223 14.8532 13.9375 15.1625V21.4125H10.1875V10.1625H13.9375V11.75C14.2782 11.1589 14.7736 10.6719 15.3705 10.3415C15.9675 10.0111 16.6432 9.84981 17.325 9.875C19.825 9.875 21.6375 11.4875 21.6375 14.95V21.425Z" fill="#27374D"/>
</svg>
