<svg width="30" height="24" viewBox="0 0 30 24" fill="none" xmlns="http://www.w3.org/2000/svg">
<path fill-rule="evenodd" clip-rule="evenodd" d="M30 2.841C28.875 3.33155 27.6836 3.65303 26.4645 3.795C27.7444 3.0447 28.7066 1.8532 29.1705 0.444002C27.9601 1.1505 26.639 1.64749 25.263 1.914C24.6829 1.30724 23.9856 0.824699 23.2133 0.495677C22.441 0.166656 21.6099 -0.00198199 20.7705 2.04635e-06C17.3715 2.04635e-06 14.616 2.712 14.616 6.06C14.616 6.534 14.67 6.996 14.775 7.44C12.3368 7.32425 9.94941 6.70157 7.76525 5.61169C5.58109 4.5218 3.64807 2.98864 2.0895 1.11C1.54288 2.0316 1.25477 3.08349 1.2555 4.155C1.25712 5.15697 1.50839 6.14274 1.98661 7.02323C2.46483 7.90371 3.15491 8.65116 3.9945 9.198C3.01839 9.16811 2.06307 8.90859 1.206 8.4405V8.5155C1.206 11.451 3.327 13.9005 6.141 14.457C5.23445 14.699 4.28523 14.7349 3.363 14.562C4.146 16.968 6.4185 18.72 9.1125 18.7695C6.9225 20.4577 4.23368 21.3705 1.4685 21.3645C0.977725 21.3641 0.487394 21.335 0 21.2775C2.82347 23.0607 6.09556 24.0049 9.435 24C20.7555 24 26.946 14.7675 26.946 6.762C26.946 6.4995 26.94 6.237 26.928 5.9775C28.1306 5.12392 29.171 4.06072 30 2.841Z" fill="#27374D"/>
</svg>
